<?xml version="1.0" encoding="UTF-8"?>
<svg version="1.1" xmlns="http://www.w3.org/2000/svg" width="64" height="64">
<path d="M0 0 C1.38541992 0.00483398 1.38541992 0.00483398 2.79882812 0.00976562 C4.17844727 -0.0144043 4.17844727 -0.0144043 5.5859375 -0.0390625 C6.91141602 -0.0400293 6.91141602 -0.0400293 8.26367188 -0.04101562 C9.07312256 -0.04399658 9.88257324 -0.04697754 10.71655273 -0.05004883 C12.86132812 0.32226562 12.86132812 0.32226562 14.64868164 1.5949707 C15.86132812 3.32226562 15.86132812 3.32226562 15.86132812 7.32226562 C16.46460938 7.28746094 17.06789062 7.25265625 17.68945312 7.21679688 C21.2597217 7.09586842 24.09389574 7.00406195 27.42382812 8.38476562 C29.58273902 11.29460205 29.12617366 13.81306222 28.86132812 17.32226562 C26.88132812 18.31226563 26.88132812 18.31226563 24.86132812 19.32226562 C24.88227539 20.54333008 24.90322266 21.76439453 24.92480469 23.02246094 C24.99722971 27.55473087 25.04313701 32.0869497 25.08105469 36.61962891 C25.10116445 38.58097944 25.12845631 40.54227006 25.16308594 42.50341797 C25.21163234 45.32339257 25.23430299 48.14257427 25.25195312 50.96289062 C25.27259827 51.83907043 25.29324341 52.71525024 25.31451416 53.61798096 C25.31587954 57.3262607 25.26360785 59.64540992 23.34472656 62.87402344 C19.86301206 64.90445309 16.65713188 64.89560501 12.73632812 64.85351562 C11.95241699 64.85734253 11.16850586 64.86116943 10.36083984 64.8651123 C8.70669263 64.86782915 7.0525023 64.86048373 5.3984375 64.84375 C2.86946651 64.82233454 0.34333598 64.8435566 -2.18554688 64.86914062 C-3.79492813 64.86649731 -5.40430762 64.86137223 -7.01367188 64.85351562 C-8.14506592 64.86566101 -8.14506592 64.86566101 -9.29931641 64.87805176 C-12.53681421 64.82035779 -14.80714902 64.51559964 -17.62207031 62.87402344 C-19.93634953 58.98013316 -19.63406124 55.40909019 -19.52929688 50.96289062 C-19.52080719 49.60632355 -19.52080719 49.60632355 -19.512146 48.22235107 C-19.48978436 45.3384471 -19.43958873 42.45579301 -19.38867188 39.57226562 C-19.36860658 37.61525234 -19.35035586 35.65821955 -19.33398438 33.70117188 C-19.28992027 28.90772273 -19.22089439 24.11520597 -19.13867188 19.32226562 C-20.45867188 18.66226562 -21.77867188 18.00226562 -23.13867188 17.32226562 C-23.61819533 10.96857985 -23.61819533 10.96857985 -21.70117188 8.38476562 C-17.87965334 6.80023355 -14.22004697 7.08680168 -10.13867188 7.32226562 C-10.01492187 6.53851562 -9.89117187 5.75476563 -9.76367188 4.94726562 C-8.41452344 -0.71915781 -4.9561584 0.03982304 0 0 Z M-6.13867188 5.32226562 C-6.13867188 5.98226563 -6.13867188 6.64226563 -6.13867188 7.32226562 C-0.19867187 7.32226562 5.74132813 7.32226562 11.86132812 7.32226562 C11.53132813 6.33226562 11.20132813 5.34226562 10.86132812 4.32226562 C8.15032042 2.96676177 5.94793644 3.15309355 2.92382812 3.13476562 C1.86292969 3.12058594 0.80203125 3.10640625 -0.29101562 3.09179688 C-3.34144856 3.10661496 -3.34144856 3.10661496 -6.13867188 5.32226562 Z M-19.13867188 12.32226562 C-19.13867188 13.31226563 -19.13867188 14.30226563 -19.13867188 15.32226562 C-15.77195309 17.00562502 -11.96570587 16.46380852 -8.26367188 16.45507812 C-7.38340332 16.45603485 -6.50313477 16.45699158 -5.59619141 16.45797729 C-3.73339771 16.45865838 -1.87060165 16.45680906 -0.0078125 16.45263672 C2.84966341 16.44728746 5.70698213 16.45258411 8.56445312 16.45898438 C10.37174514 16.45832358 12.17903706 16.45704239 13.98632812 16.45507812 C14.84468262 16.45710236 15.70303711 16.45912659 16.58740234 16.46121216 C20.85933614 16.5686924 20.85933614 16.5686924 24.86132812 15.32226562 C24.86132812 14.33226562 24.86132812 13.34226562 24.86132812 12.32226562 C21.49460934 10.63890623 17.68836212 11.18072273 13.98632812 11.18945312 C13.10605957 11.1884964 12.22579102 11.18753967 11.31884766 11.18655396 C9.45605396 11.18587287 7.5932579 11.18772219 5.73046875 11.19189453 C2.87299284 11.19724379 0.01567412 11.19194714 -2.84179688 11.18554688 C-4.64908889 11.18620767 -6.45638081 11.18748886 -8.26367188 11.18945312 C-9.12202637 11.18742889 -9.98038086 11.18540466 -10.86474609 11.18331909 C-15.13667989 11.07583885 -15.13667989 11.07583885 -19.13867188 12.32226562 Z M-15.13867188 20.32226562 C-15.23047456 25.67997261 -15.31011632 31.03495552 -15.35839844 36.39282227 C-15.37852247 38.21550742 -15.40582484 40.03812796 -15.44042969 41.8605957 C-15.48891455 44.4794915 -15.51163197 47.09753442 -15.52929688 49.71679688 C-15.54994202 50.53251663 -15.57058716 51.34823639 -15.59185791 52.18867493 C-15.61555585 56.59976029 -15.61555585 56.59976029 -13.51269531 60.33520508 C-10.46831799 61.60098228 -8.06249765 61.71079532 -4.76367188 61.72070312 C-3.53132813 61.72457031 -2.29898437 61.7284375 -1.02929688 61.73242188 C0.8965625 61.71501953 0.8965625 61.71501953 2.86132812 61.69726562 C4.14523438 61.70886719 5.42914063 61.72046875 6.75195312 61.73242188 C8.60046875 61.72662109 8.60046875 61.72662109 10.48632812 61.72070312 C11.61296875 61.71731934 12.73960938 61.71393555 13.90039062 61.71044922 C17.32155476 61.26192918 18.68051454 61.02208665 20.86132812 58.32226562 C21.21652049 55.32738287 21.32760304 52.70583572 21.25195312 49.71679688 C21.24346344 48.45798958 21.24346344 48.45798958 21.23480225 47.17375183 C21.21241219 44.4935093 21.16221265 41.814604 21.11132812 39.13476562 C21.09126645 37.31772764 21.0730151 35.5006687 21.05664062 33.68359375 C21.0159398 29.2288882 20.93765991 24.77707333 20.86132812 20.32226562 C8.98132812 20.32226562 -2.89867188 20.32226562 -15.13867188 20.32226562 Z " fill="#000000" transform="translate(29.138671875,-0.322265625)"/>
<path d="M0 0 C1.32 0 2.64 0 4 0 C4 10.23 4 20.46 4 31 C2.68 31.33 1.36 31.66 0 32 C0 21.44 0 10.88 0 0 Z " fill="#000000" transform="translate(30,23)"/>
<path d="M0 0 C1.32 0 2.64 0 4 0 C4 10.56 4 21.12 4 32 C2.68 31.67 1.36 31.34 0 31 C0 20.77 0 10.54 0 0 Z " fill="#000000" transform="translate(21,23)"/>
<path d="M0 0 C1.32 0.33 2.64 0.66 4 1 C4 10.9 4 20.8 4 31 C2.68 31.33 1.36 31.66 0 32 C0 21.44 0 10.88 0 0 Z " fill="#000000" transform="translate(39,23)"/>
</svg>
